<svg xmlns="http://www.w3.org/2000/svg" viewBox="0 0 58 58">
  <path fill="#c8d6e5" d="m0 25.999 6-5.586v8.895L29 41.99l23-12.682v-8.895l6 5.586v18.313H-.019L0 25.999Z"/>
  <path fill="#8395a7" d="M57.997 26.11v29.572a2.727 2.727 0 0 1-1.008 1.741L28.997 41.997l28.909-15.94a.061.061 0 0 1 .091.053Z"/>
  <path fill="#f2ecbf" d="M6.013 29.307V11.413a2.733 2.733 0 0 1 2.556-2.412L49.5 8.999a2.733 2.733 0 0 1 2.512 2.591l.001 17.717-23 12.682-23-12.682Z"/>
  <path fill="#bab395" d="M41 32h-7a1 1 0 1 1 0-2h7a1 1 0 1 1 0 2Zm-9-15h-6a1 1 0 1 1 0-2h6a1 1 0 1 1 0 2Zm-11 7h-5a1 1 0 1 1 0-2h5a1 1 0 1 1 0 2Zm16 0h-8a1 1 0 1 1 0-2h8a1 1 0 1 1 0 2Zm-12 0c-.26 0-.521-.11-.71-.29A1.05 1.05 0 0 1 24 23c0-.271.109-.521.29-.71.37-.37 1.05-.37 1.42 0 .18.189.29.439.29.71 0 .26-.11.52-.29.71-.19.179-.45.29-.71.29Zm5 8H20a1 1 0 1 1 0-2h10a1 1 0 1 1 0 2Zm-14 0a1.01 1.01 0 0 1-.71-.29A1.05 1.05 0 0 1 15 31c0-.271.1-.521.29-.71.38-.37 1.05-.37 1.42 0 .189.2.29.45.29.71 0 .26-.11.52-.29.71-.19.179-.45.29-.71.29Zm25-8c-.26 0-.521-.11-.71-.29A1.05 1.05 0 0 1 40 23c0-.271.109-.521.29-.71.37-.37 1.04-.37 1.42 0 .18.189.29.45.29.71 0 .26-.11.52-.29.71-.19.179-.45.29-.71.29Z"/>
  <path fill="#576574" d="m.037 26.028 56.94 31.39a2.721 2.721 0 0 1-1.429.566l-51.204-.006v-.005l-1.692-.001a2.734 2.734 0 0 1-2.691-2.574s-.016-29.393.076-29.37Z"/>
  <path fill="#c8d6e5" d="M39.741 9 30.861.733a2.733 2.733 0 0 0-3.723 0L18.259 9h21.482Z"/>
</svg>